<?xml version="1.0" encoding="utf-8"?>
<!-- Generated by IcoMoon.io -->
<!DOCTYPE svg PUBLIC "-//W3C//DTD SVG 1.1//EN" "http://www.w3.org/Graphics/SVG/1.1/DTD/svg11.dtd">
<svg version="1.1" xmlns="http://www.w3.org/2000/svg" xmlns:xlink="http://www.w3.org/1999/xlink" width="48" height="48" viewBox="0 0 48 48">
<g id="icomoon-ignore">
</g>
<path d="M34 38h-24c-1.106 0-2-0.894-2-2s0.894-2 2-2h24c1.106 0 2 0.894 2 2s-0.894 2-2 2z" fill="#000000"></path>
<path d="M35 10h-25v18c0 2.2 1.8 4 4 4h16c2.2 0 4-1.8 4-4v-4h1c3.86 0 7-3.14 7-7s-3.14-7-7-7zM30 28h-16v-14h16v14zM35 20h-3v-6h3c1.654 0 3 1.346 3 3s-1.346 3-3 3z" fill="#000000"></path>
</svg>
